<svg xmlns="http://www.w3.org/2000/svg" viewBox="0 0 128 128" role="img" aria-labelledby="title desc">
  <title id="title">Belajar Ngaji</title>
  <desc id="desc">Open Islamic book logo with crescent and star</desc>
  <defs>
    <linearGradient id="bg" x1="16" y1="8" x2="112" y2="120" gradientUnits="userSpaceOnUse">
      <stop offset="0" stop-color="#d1fae5" />
      <stop offset="0.55" stop-color="#ecfdf5" />
      <stop offset="1" stop-color="#fef3c7" />
    </linearGradient>
    <linearGradient id="book" x1="28" y1="42" x2="100" y2="96" gradientUnits="userSpaceOnUse">
      <stop offset="0" stop-color="#ffffff" />
      <stop offset="1" stop-color="#f8fafc" />
    </linearGradient>
  </defs>
  <rect width="128" height="128" rx="28" fill="url(#bg)" />
  <circle cx="64" cy="64" r="48" fill="#047857" opacity="0.1" />
  <path d="M 35 42 C 48 38 58 42 64 50 C 70 42 80 38 93 42 L 93 94 C 80 90 70 94 64 102 C 58 94 48 90 35 94 Z" fill="url(#book)" stroke="#065f46" stroke-width="5" stroke-linejoin="round" />
  <path d="M 64 50 L 64 101" stroke="#065f46" stroke-width="4" stroke-linecap="round" />
  <path d="M 43 55 C 50 53 56 55 60 59" stroke="#10b981" stroke-width="3" stroke-linecap="round" fill="none" />
  <path d="M 43 68 C 50 66 56 68 60 72" stroke="#10b981" stroke-width="3" stroke-linecap="round" fill="none" />
  <path d="M 85 55 C 78 53 72 55 68 59" stroke="#10b981" stroke-width="3" stroke-linecap="round" fill="none" />
  <path d="M 85 68 C 78 66 72 68 68 72" stroke="#10b981" stroke-width="3" stroke-linecap="round" fill="none" />
  <path d="M 84 26 A 17 17 0 1 0 101 47 A 12 12 0 1 1 84 26 Z" fill="#facc15" />
  <path d="M 101 30 L 103.5 36 L 110 36.5 L 105 40.5 L 106.5 47 L 101 43.5 L 95.5 47 L 97 40.5 L 92 36.5 L 98.5 36 Z" fill="#f59e0b" />
  <rect x="42" y="88" width="44" height="8" rx="4" fill="#facc15" />
</svg>
